<svg xmlns="http://www.w3.org/2000/svg" viewBox="0 0 360 130">
  <g fill="none" stroke="#1a1a1a" stroke-width="5.5" stroke-linecap="round" stroke-linejoin="round">
    <!-- E: capital, three horizontals + vertical backbone -->
    <path d="M 12,20 C 12,42 11.5,68 11,102"/>
    <path d="M 12,20 C 28,19 42,18 58,21"/>
    <path d="M 11.5,58 C 24,56 36,55 50,57"/>
    <path d="M 11,102 C 28,101 44,100 60,103"/>

    <!-- s: lowercase, two opposing curves -->
    <path d="M 92,50 C 86,46 76,44 72,50 C 68,56 78,62 88,66 C 98,70 100,78 92,84 C 84,90 72,88 66,82"/>

    <!-- t: vertical stroke with crossbar -->
    <path d="M 112,24 C 112.5,46 113,68 114,102"/>
    <path d="M 100,50 C 108,48 118,48 128,50"/>

    <!-- h: vertical stroke + arch into second leg -->
    <path d="M 140,20 C 140,42 140.5,68 141,102"/>
    <path d="M 141,52 C 145,44 154,40 164,44 C 172,48 174,58 174,68 C 174,80 174.5,92 175,102"/>

    <!-- e: small oval with opening on right -->
    <path d="M 188,66 C 200,64 212,64 214,70 C 216,78 210,88 200,90 C 190,92 184,86 184,76 C 184,66 188,60 196,58"/>

    <!-- r: vertical stroke + small hook/shoulder -->
    <path d="M 228,50 C 228.5,66 229,82 229,102"/>
    <path d="M 229,52 C 232,44 240,40 250,42"/>
  </g>
</svg>
